{
  "asset": { "version": "2.0", "generator": "BlueFrog hand-authored test asset" },
  "scene": 0,
  "scenes": [ { "nodes": [ 0 ] } ],
  "nodes":  [ { "mesh": 0 } ],
  "meshes": [
    {
      "name": "Tetrahedron",
      "primitives": [
        {
          "attributes": { "POSITION": 0, "NORMAL": 1, "TEXCOORD_0": 2 },
          "indices": 3,
          "mode": 4
        }
      ]
    }
  ],
  "accessors": [
    { "bufferView": 0, "componentType": 5126, "count": 4,  "type": "VEC3", "min": [-1.0, -1.0, -1.0], "max": [1.0, 1.0, 1.0] },
    { "bufferView": 1, "componentType": 5126, "count": 4,  "type": "VEC3" },
    { "bufferView": 2, "componentType": 5126, "count": 4,  "type": "VEC2" },
    { "bufferView": 3, "componentType": 5123, "count": 12, "type": "SCALAR" }
  ],
  "bufferViews": [
    { "buffer": 0, "byteOffset": 0,   "byteLength": 48 },
    { "buffer": 0, "byteOffset": 48,  "byteLength": 48 },
    { "buffer": 0, "byteOffset": 96,  "byteLength": 32 },
    { "buffer": 0, "byteOffset": 128, "byteLength": 24 }
  ],
  "buffers": [
    {
      "byteLength": 152,
      "uri": "data:application/octet-stream;base64,"
    }
  ]
}
